<svg width="78" height="75" viewBox="0 0 78 75" fill="none" xmlns="http://www.w3.org/2000/svg">
<path d="M47.3056 28.2982C47.223 27.7606 46.7068 27.3938 46.1528 27.479L37.1248 28.8673C36.5708 28.9525 36.1887 29.4573 36.2714 29.9949C36.3541 30.5326 36.8702 30.8993 37.4242 30.8141L45.4491 29.5801L46.6466 37.3675C46.7293 37.9051 47.2454 38.2719 47.7994 38.1867C48.3534 38.1015 48.7355 37.5966 48.6528 37.059L47.3056 28.2982ZM34.695 45.4464L47.1177 29.0317L45.4874 27.8732L33.0647 44.2879L34.695 45.4464Z" fill="#2AC7F0"/>
<rect x="-0.662648" y="-0.26869" width="60.5768" height="58.1844" rx="29.0922" transform="matrix(0.925334 -0.379152 0.399961 0.916532 0.0579886 22.3152)" stroke="#2AC7F0"/>
</svg>
